<svg width="1440" height="2560" version="1.1" viewBox="0 0 381 677.33" xmlns="http://www.w3.org/2000/svg">
	<g>
		<circle cx="317.46" cy="69.463" r="30.238" fill="#ff6684" style="paint-order:markers stroke fill"/>
		<path d="m0 354.86c172.12 100.68 282.54-134.78 495.26-99.052 212.72 35.724 116.91 436.8-21.109 456.29-138.02 19.486-798.91 224.09-909.33-47.09 34.218-430.07 382.18-364.5 435.18-310.15z" fill="#ffe74b"/>
	</g>
	<path d="m455.1 475.87c-118.07-98.177-188.12-34.44-194.89 44.198-6.7668 78.638-96.582 91.154-128.02 34.285-31.441-56.869-135.83-63.687-165.05 15.242-66.195 178.8 227.84 497.15 500.94 276.72 100.04-80.745 109.52-284.39-12.98-370.44z" fill="#555"/>
</svg>
